<svg width="20" height="16" viewBox="0 0 20 16" fill="none" xmlns="http://www.w3.org/2000/svg">
<path d="M19 11.5V8.5V7.98C19 7.81 18.95 7.64 18.87 7.5C18.83 7.42 18.77 7.34 18.71 7.28L14.22 2.79C14.04 2.61 13.78 2.5 13.52 2.5H12V1.5C12 0.95 11.55 0.5 11 0.5C10.45 0.5 10 0.95 10 1.5V2.5H2C1.45 2.5 1 2.95 1 3.5V8.5V11.5C0.45 11.5 0 11.95 0 12.5C0 13.05 0.45 13.5 1 13.5H3.05C3.28 14.64 4.29 15.5 5.5 15.5C6.71 15.5 7.72 14.64 7.95 13.5H12.05C12.28 14.64 13.29 15.5 14.5 15.5C15.71 15.5 16.72 14.64 16.95 13.5H19C19.55 13.5 20 13.05 20 12.5C20 11.95 19.55 11.5 19 11.5ZM4 5H5V4C5 3.72 5.22 3.5 5.5 3.5C5.78 3.5 6 3.72 6 4V5H7C7.28 5 7.5 5.22 7.5 5.5C7.5 5.78 7.28 6 7 6H6V7C6 7.28 5.78 7.5 5.5 7.5C5.22 7.5 5 7.28 5 7V6H4C3.72 6 3.5 5.78 3.5 5.5C3.5 5.22 3.72 5 4 5ZM18 11.5V12.5H16.95C16.72 11.36 15.71 10.5 14.5 10.5C13.29 10.5 12.28 11.36 12.05 12.5H7.95C7.72 11.36 6.71 10.5 5.5 10.5C4.29 10.5 3.28 11.36 3.05 12.5H2V11.5V9.5H18V11.5Z" fill="#FF2341"/>
</svg>
