<svg width="18" height="12" viewBox="0 0 18 12" fill="none" xmlns="http://www.w3.org/2000/svg">
<path d="M17.42 4.92V11C17.42 11.55 16.97 12 16.42 12H1.58002C1.02002 12 0.580017 11.55 0.580017 11V4.92C0.580017 3 1.69002 1.34 3.30002 0.560004C3.33002 0.550004 3.36002 0.530004 3.39002 0.520004L8.30002 5.44V7.5C8.30002 8.05 8.75002 8.5 9.30002 8.5H11.5C11.71 9.07 12.25 9.48 12.89 9.48C13.71 9.48 14.37 8.82 14.37 8C14.37 7.18 13.71 6.52 12.89 6.52C12.25 6.52 11.71 6.93 11.5 7.5H9.30002V5.44L14.34 0.410004C14.38 0.420004 14.42 0.430004 14.46 0.450004C16.2 1.19 17.42 2.91 17.42 4.92Z" fill="#0070FF"/>
</svg>
